<?xml version="1.0" standalone="no"?>
<!DOCTYPE svg PUBLIC "-//W3C//DTD SVG 20010904//EN"
 "http://www.w3.org/TR/2001/REC-SVG-20010904/DTD/svg10.dtd">
<svg version="1.0" xmlns="http://www.w3.org/2000/svg"
 width="1927.000000pt" height="1927.000000pt" viewBox="0 0 1927.000000 1927.000000"
 preserveAspectRatio="xMidYMid meet">
<metadata>
Created by potrace 1.11, written by Peter Selinger 2001-2013
</metadata>
<g transform="translate(0.000000,1927.000000) scale(0.100000,-0.100000)"
fill="#000000" stroke="none">
<path d="M2335 17008 c-286 -33 -558 -196 -727 -433 -78 -109 -146 -258 -163
-356 -3 -18 -7 -35 -9 -38 -8 -12 -18 -118 -20 -196 -12 -449 291 -873 719
-1008 316 -100 636 -55 910 128 370 247 542 718 419 1150 -112 395 -443 686
-853 750 -67 11 -198 12 -276 3z"/>
<path d="M5496 16861 c-2 -3 -4 -805 -4 -1782 0 -977 -3 -1809 -6 -1850 -9
-103 -16 -171 -21 -189 -2 -8 -7 -35 -10 -60 -3 -25 -8 -53 -11 -62 -3 -9 -7
-26 -9 -37 -24 -124 -104 -311 -180 -416 -43 -61 -129 -151 -162 -169 -10 -5
-24 -16 -32 -23 -43 -44 -247 -116 -366 -130 -74 -9 -251 -10 -325 -1 -184 22
-370 108 -490 228 -140 140 -253 406 -286 675 -4 28 -8 53 -10 56 -10 17 -18
314 -18 647 l-1 372 -1065 0 -1066 0 2 -472 c2 -430 6 -578 18 -678 3 -19 8
-62 11 -95 5 -50 27 -182 51 -310 21 -114 109 -404 161 -530 51 -124 156 -322
229 -432 105 -159 187 -259 323 -393 223 -221 453 -376 764 -517 96 -43 392
-147 447 -157 14 -2 52 -11 85 -19 33 -9 72 -18 88 -21 15 -3 35 -7 45 -10 9
-3 35 -7 57 -11 22 -3 81 -12 130 -20 50 -8 119 -17 155 -20 36 -3 76 -8 90
-10 88 -14 539 -21 695 -10 144 9 221 16 245 20 14 2 48 7 75 10 284 33 596
113 857 220 113 47 311 144 358 176 14 9 63 42 111 72 398 258 736 675 914
1127 20 52 41 104 46 115 55 132 143 512 164 705 3 30 8 66 10 80 17 94 20
420 20 2070 l0 1855 -1043 1 c-573 0 -1044 -2 -1046 -5z"/>
<path d="M9720 13710 l0 -3157 2490 0 2490 0 -2 826 -3 826 -1420 0 -1420 0
-5 2331 -5 2331 -1062 0 -1063 0 0 -3157z"/>
<path d="M17228 14842 l-48 -3 0 -874 0 -873 248 1 247 2 1 275 1 275 664 2
c365 1 680 2 700 2 l36 1 0 319 -1 318 -693 0 c-381 0 -696 3 -699 6 -4 4 -7
128 -7 277 0 148 -3 270 -6 271 -22 2 -405 3 -443 1z"/>
<path d="M17184 12731 c-2 -2 -4 -122 -4 -265 l0 -261 187 -110 c102 -60 197
-117 212 -125 96 -56 531 -316 553 -331 15 -10 32 -19 38 -19 7 0 10 -4 8 -10
-3 -8 -509 -322 -870 -539 l-128 -76 3 -265 2 -265 945 0 945 0 1 292 1 293
-410 2 -410 3 49 31 c27 17 92 57 144 89 52 32 118 72 145 90 28 17 107 67
178 110 70 43 128 83 128 89 1 6 2 71 3 144 l2 134 -266 158 c-146 87 -281
167 -300 179 -19 11 -52 30 -73 41 -22 12 -37 24 -34 26 3 3 193 6 423 7 l419
3 1 292 1 292 -944 -2 c-520 -2 -947 -5 -949 -7z"/>
<path d="M17432 9993 c-122 -123 -221 -306 -258 -473 -4 -19 -8 -37 -9 -40 -1
-3 -5 -30 -9 -60 -5 -30 -10 -64 -12 -75 -6 -29 -6 -254 0 -295 3 -19 8 -53
11 -75 22 -155 93 -334 184 -460 146 -204 352 -332 611 -380 75 -14 302 -14
365 -1 173 38 283 86 407 178 66 49 155 138 186 187 9 15 19 28 22 31 3 3 16
22 29 43 76 124 132 288 149 437 9 71 8 289 -1 362 -13 109 -69 330 -89 352
-4 6 -8 16 -8 24 0 20 -99 217 -120 239 -15 17 -45 18 -416 18 l-399 0 0 -278
c0 -178 3 -277 10 -278 5 0 114 -1 241 -1 l231 -1 17 -53 c23 -72 31 -197 17
-269 -42 -222 -214 -355 -461 -356 -100 -1 -165 13 -237 48 -100 48 -171 128
-208 233 -20 57 -25 85 -26 162 -4 157 41 267 159 390 l45 47 -49 58 c-27 32
-67 78 -90 103 -23 25 -59 65 -79 90 -21 25 -62 71 -92 103 l-54 59 -67 -69z"/>
<path d="M2755 8503 c-59 -137 -119 -273 -132 -303 -14 -30 -56 -125 -93 -210
-178 -409 -240 -551 -258 -591 -11 -24 -49 -111 -85 -194 -35 -82 -74 -170
-85 -195 -11 -25 -69 -155 -127 -290 -59 -135 -112 -258 -120 -275 -7 -16 -22
-52 -34 -78 -12 -26 -98 -224 -192 -440 -94 -216 -180 -412 -191 -437 -11 -25
-26 -58 -33 -75 -76 -174 -549 -1257 -560 -1280 -7 -16 -22 -50 -33 -75 -11
-25 -160 -367 -332 -760 -172 -393 -327 -749 -345 -790 l-32 -75 1083 0 1083
0 16 40 c9 22 41 105 71 185 31 80 61 159 68 175 7 17 19 46 26 65 7 19 18 49
25 65 7 17 51 134 99 260 90 236 103 269 116 295 6 13 150 15 1200 15 655 0
1195 -2 1199 -5 4 -3 19 -39 35 -80 15 -41 31 -84 36 -95 5 -11 31 -78 58
-150 58 -151 157 -406 239 -620 l59 -150 1089 -1 c600 0 1095 1 1101 3 8 3
-481 1144 -601 1401 -14 29 -25 54 -25 57 0 2 -27 66 -61 142 -69 157 -74 169
-122 278 -19 44 -75 170 -123 280 -48 110 -102 234 -119 275 -37 86 -69 157
-95 215 -10 22 -23 51 -28 65 -5 14 -44 102 -85 195 -41 94 -129 296 -196 450
-67 154 -130 298 -140 320 -10 22 -38 85 -61 139 -23 54 -46 106 -51 115 -5 9
-79 178 -165 376 -86 198 -164 378 -174 400 -10 22 -104 238 -209 480 -106
242 -196 449 -201 460 -6 11 -73 164 -150 340 l-139 320 -1049 3 -1050 2 -107
-247z m1310 -2298 c5 -11 9 -22 10 -25 1 -3 9 -22 18 -44 9 -21 17 -42 17 -47
0 -5 4 -17 9 -27 9 -15 69 -170 194 -497 19 -49 68 -179 111 -288 42 -109 76
-199 76 -201 0 -2 -274 -3 -609 -3 l-609 0 20 51 c11 28 64 166 118 306 169
437 431 1115 468 1209 3 7 42 -83 87 -200 45 -118 86 -223 90 -234z"/>
<path d="M15029 8466 c-8 -7 -93 -66 -189 -131 -96 -65 -215 -146 -265 -180
-49 -34 -160 -109 -245 -167 -85 -58 -202 -138 -260 -177 -58 -40 -163 -112
-235 -159 -71 -48 -135 -91 -141 -97 -6 -5 -83 -58 -170 -117 -88 -58 -213
-143 -279 -188 -66 -46 -125 -84 -131 -87 -6 -2 -34 38 -63 89 -269 472 -667
807 -1153 970 -66 21 -127 41 -136 43 -9 2 -46 10 -82 18 -36 9 -85 18 -110
22 -25 3 -52 8 -60 10 -18 4 -116 15 -190 21 -75 6 -333 5 -400 -1 -81 -7
-172 -17 -195 -21 -11 -3 -38 -7 -60 -9 -215 -28 -584 -167 -763 -286 -24 -16
-45 -29 -48 -29 -7 0 -178 -129 -219 -165 -237 -208 -416 -447 -565 -750 -51
-105 -118 -261 -124 -290 -1 -5 -16 -53 -34 -105 -49 -154 -106 -399 -127
-550 -3 -25 -8 -56 -10 -70 -35 -240 -38 -384 -37 -2035 0 -858 1 -1569 1
-1580 1 -20 8 -20 3157 -20 l3156 0 -1 1035 c0 569 0 1049 0 1065 l-1 30 -782
-1 c-431 0 -788 1 -793 3 -10 3 -15 567 -5 576 3 2 111 75 240 162 129 87 296
200 370 250 74 50 227 154 340 230 574 387 630 427 631 443 2 96 0 2254 -3
2257 -2 3 -11 -1 -19 -9z m-3745 -2287 c70 -11 170 -44 217 -71 138 -78 251
-221 302 -383 48 -151 51 -195 51 -695 l1 -475 -735 0 -735 0 -1 438 c-1 552
9 644 91 824 96 210 275 336 520 369 28 3 51 7 52 8 7 6 176 -4 237 -15z"/>
<path d="M17180 7430 l1 -265 211 -125 c116 -69 232 -137 257 -151 25 -15 129
-76 231 -137 343 -205 317 -182 250 -220 -19 -11 -93 -55 -163 -98 -71 -44
-141 -87 -157 -96 -28 -17 -249 -151 -430 -263 -47 -29 -111 -67 -142 -86
l-57 -34 -1 -265 0 -265 945 0 c939 0 946 0 950 20 2 11 3 143 3 292 l-1 273
-411 2 -411 3 75 45 c41 24 80 48 85 53 10 8 371 232 428 266 64 37 61 27 62
181 l1 142 -291 173 c-159 95 -308 183 -330 195 -22 12 -44 26 -50 31 -11 11
-33 10 460 12 l380 2 1 293 1 292 -948 -2 -949 -3 0 -265z"/>
<path d="M17957 4524 c-1 -1 -26 -5 -55 -8 -124 -15 -214 -42 -337 -102 -307
-151 -527 -456 -572 -795 -26 -200 14 -435 106 -613 156 -303 442 -510 773
-560 115 -17 304 -12 380 10 9 3 25 6 35 8 48 10 156 52 227 89 455 236 669
771 505 1262 -126 376 -465 653 -856 700 -47 6 -202 13 -206 9z"/>
</g>
</svg>
